<svg width="17" height="21" viewBox="0 0 17 21" fill="none" xmlns="http://www.w3.org/2000/svg">
<path d="M11.6276 3.36916C12.4117 2.42782 12.8002 1.22053 12.7119 0C11.5102 0.115665 10.4009 0.69344 9.61909 1.61085C9.22979 2.05029 8.93141 2.5621 8.74109 3.11689C8.55077 3.67167 8.47227 4.25849 8.5101 4.84362C9.10874 4.85532 9.70193 4.72823 10.2429 4.47236C10.7839 4.21649 11.2579 3.83884 11.6276 3.36916ZM12.638 5.06602C10.9129 4.96649 9.4589 6.049 8.63332 6.049C7.80774 6.049 6.55089 5.12008 5.19547 5.14466C4.30796 5.1696 3.44257 5.42636 2.68576 5.8893C1.92895 6.35224 1.30723 7.00513 0.882745 7.78273C-0.965563 10.9774 0.389863 15.7362 2.18888 18.3374C3.06375 19.5735 4.11112 21.0468 5.50352 20.9989C6.89591 20.9509 7.32718 20.1388 8.91673 20.1388C10.5063 20.1388 10.9745 20.9989 12.3546 20.9681C13.7347 20.9374 14.6958 19.7296 15.5583 18.3878C16.1805 17.4714 16.6661 16.4698 17 15.4143C16.1714 15.0485 15.4666 14.4517 14.9703 13.6957C14.474 12.9396 14.2075 12.0567 14.2029 11.1531C14.2131 10.3514 14.4249 9.56503 14.8188 8.86607C15.2128 8.16711 15.7763 7.57789 16.4578 7.15239C16.0248 6.53502 15.455 6.02543 14.7925 5.66318C14.1301 5.30093 13.3928 5.09575 12.638 5.06356" fill="#000008"/>
</svg>
