<svg width="22" height="22" viewBox="0 0 22 22" fill="none" xmlns="http://www.w3.org/2000/svg">
<path d="M1.83325 7.67904C1.83325 7.35791 1.83325 7.19735 1.84665 7.06211C1.97589 5.75775 3.00775 4.72589 4.31211 4.59665C4.44735 4.58325 4.61658 4.58325 4.95504 4.58325C5.08545 4.58325 5.15066 4.58325 5.20602 4.5799C5.91298 4.53708 6.53204 4.09089 6.79622 3.43375C6.81691 3.38229 6.83624 3.32428 6.87492 3.20825C6.91359 3.09223 6.93293 3.03422 6.95362 2.98275C7.2178 2.32561 7.83686 1.87942 8.54381 1.8366C8.59918 1.83325 8.66033 1.83325 8.78263 1.83325H13.2172C13.3395 1.83325 13.4007 1.83325 13.456 1.8366C14.163 1.87942 14.782 2.32561 15.0462 2.98275C15.0669 3.03422 15.0862 3.09223 15.1249 3.20825C15.1636 3.32428 15.1829 3.38229 15.2036 3.43375C15.4678 4.09089 16.0869 4.53708 16.7938 4.5799C16.8492 4.58325 16.9144 4.58325 17.0448 4.58325C17.3833 4.58325 17.5525 4.58325 17.6877 4.59665C18.9921 4.72589 20.0239 5.75775 20.1532 7.06211C20.1666 7.19735 20.1666 7.35791 20.1666 7.67904V14.8499C20.1666 16.3901 20.1666 17.1601 19.8669 17.7484C19.6032 18.2658 19.1825 18.6865 18.6651 18.9502C18.0768 19.2499 17.3067 19.2499 15.7666 19.2499H6.23325C4.69311 19.2499 3.92304 19.2499 3.33478 18.9502C2.81733 18.6865 2.39664 18.2658 2.13298 17.7484C1.83325 17.1601 1.83325 16.3901 1.83325 14.8499V7.67904Z" stroke="#3C3C43" stroke-opacity="0.6" stroke-width="1.2" stroke-linecap="round" stroke-linejoin="round"/>
<path d="M10.9999 15.1249C13.025 15.1249 14.6666 13.4833 14.6666 11.4583C14.6666 9.43321 13.025 7.79159 10.9999 7.79159C8.97487 7.79159 7.33325 9.43321 7.33325 11.4583C7.33325 13.4833 8.97487 15.1249 10.9999 15.1249Z" stroke="#3C3C43" stroke-opacity="0.6" stroke-width="1.2" stroke-linecap="round" stroke-linejoin="round"/>
</svg>
