<svg width="30" height="30" viewBox="0 0 30 30" fill="none" xmlns="http://www.w3.org/2000/svg">
<path d="M29.3168 0.402832V28.8472C24.5571 28.8472 20.1929 27.1547 16.7924 24.3394C13.4 26.5994 7.96124 28.7491 1.38904 27.5542C3.19928 26.7783 10.1808 22.1239 9.92224 12.8149C9.953 12.8572 9.98756 12.8966 10.0209 12.937C9.78729 11.7255 9.66346 10.4745 9.66345 9.19482V0.402832H29.3168Z" fill="#278EFF"/>
<path d="M29.3168 0.402832H29.7197V-9.34899e-05H29.3168V0.402832ZM29.3168 28.8472V29.2501H29.7197V28.8472H29.3168ZM16.7924 24.3394L17.0493 24.029L16.8184 23.8378L16.569 24.004L16.7924 24.3394ZM1.38904 27.5542L1.23031 27.1839L-1.91927e-05 27.7112L1.31696 27.9506L1.38904 27.5542ZM9.92224 12.8149L10.2481 12.578L9.48337 11.5264L9.51947 12.8261L9.92224 12.8149ZM10.0209 12.937L9.70995 13.1933L10.4165 12.8607L10.0209 12.937ZM9.66345 9.19482H9.26053V9.19483L9.66345 9.19482ZM9.66345 0.402832V-9.34899e-05H9.26053V0.402832H9.66345ZM29.3168 0.402832H28.9138V28.8472H29.3168H29.7197V0.402832H29.3168ZM29.3168 28.8472V28.4442C24.6544 28.4442 20.3803 26.7867 17.0493 24.029L16.7924 24.3394L16.5354 24.6497C20.0055 27.5226 24.4599 29.2501 29.3168 29.2501V28.8472ZM16.7924 24.3394L16.569 24.004C13.2389 26.2226 7.9049 28.3294 1.46112 27.1578L1.38904 27.5542L1.31696 27.9506C8.01758 29.1689 13.561 26.9763 17.0158 24.6747L16.7924 24.3394ZM1.38904 27.5542L1.54777 27.9245C2.5146 27.5102 4.76585 26.1115 6.74608 23.6362C8.73421 21.151 10.4574 17.5695 10.325 12.8038L9.92224 12.8149L9.51947 12.8261C9.64567 17.3694 8.00736 20.7696 6.11681 23.1328C4.21835 25.5059 2.07371 26.8224 1.23031 27.1839L1.38904 27.5542ZM9.92224 12.8149L9.59638 13.0519C9.6367 13.1074 9.68734 13.1659 9.70995 13.1933L10.0209 12.937L10.3318 12.6807C10.2878 12.6273 10.2693 12.6071 10.2481 12.578L9.92224 12.8149ZM10.0209 12.937L10.4165 12.8607C10.1877 11.6739 10.0664 10.4485 10.0664 9.19482L9.66345 9.19482L9.26053 9.19483C9.26054 10.5006 9.38689 11.7771 9.62523 13.0133L10.0209 12.937ZM9.66345 9.19482H10.0664V0.402832H9.66345H9.26053V9.19482H9.66345ZM9.66345 0.402832V0.805758H29.3168V0.402832V-9.34899e-05H9.66345V0.402832Z" fill="#278EFF"/>
</svg>

