<svg width="20" height="20" viewBox="0 0 20 20" fill="none" xmlns="http://www.w3.org/2000/svg">
<path d="M10.204 8.18178V12.0545H15.6957C15.4546 13.3 14.7309 14.3545 13.6456 15.0636L16.9573 17.5818C18.8868 15.8364 20 13.2728 20 10.2273C20 9.51825 19.9351 8.83637 19.8145 8.18189L10.204 8.18178Z" fill="#4285F4"/>
<path d="M4.48526 11.9034L3.73834 12.4637L1.09449 14.4818C2.77354 17.7454 6.21488 20 10.2038 20C12.9588 20 15.2686 19.1091 16.957 17.5819L13.6453 15.0636C12.7362 15.6636 11.5766 16.0273 10.2038 16.0273C7.55068 16.0273 5.29655 14.2728 4.48943 11.9091L4.48526 11.9034Z" fill="#34A853"/>
<path d="M1.09455 5.51819C0.39885 6.86359 0 8.38179 0 9.99995C0 11.6181 0.398784 13.1364 1.09449 14.4818C1.09449 14.4908 4.48982 11.8999 4.48982 11.8999C4.28574 11.2999 4.16511 10.6636 4.16511 9.99984C4.16511 9.33612 4.28574 8.6998 4.48982 8.0998L1.09455 5.51819Z" fill="#FBBC05"/>
<path d="M10.204 3.98181C11.7068 3.98181 13.0426 4.49089 14.1094 5.47272L17.0315 2.60912C15.2596 0.99097 12.9591 0 10.204 0C6.21509 0 2.7736 2.24546 1.09455 5.51819L4.48966 8.1C5.29667 5.73634 7.55089 3.98181 10.204 3.98181Z" fill="#EA4335"/>
</svg>
