<svg width="23" height="23" viewBox="0 0 23 23" fill="none" xmlns="http://www.w3.org/2000/svg">
<path d="M15.525 20.125H6.64256C6.06199 20.125 5.7717 20.125 5.63728 20.0102C5.52065 19.9106 5.45875 19.7611 5.47079 19.6082C5.48466 19.432 5.68992 19.2267 6.10045 18.8162L14.2491 10.6676C14.6286 10.2881 14.8184 10.0983 15.0372 10.0272C15.2297 9.96465 15.437 9.96465 15.6295 10.0272C15.8483 10.0983 16.038 10.288 16.4176 10.6676L20.125 14.375V15.525M15.525 20.125C17.1352 20.125 17.9402 20.125 18.5552 19.8116C19.0962 19.536 19.536 19.0962 19.8116 18.5552C20.125 17.9402 20.125 17.1352 20.125 15.525M15.525 20.125H7.475C5.86485 20.125 5.05977 20.125 4.44478 19.8116C3.90381 19.536 3.46399 19.0962 3.18836 18.5552C2.875 17.9402 2.875 17.1352 2.875 15.525V7.475C2.875 5.86485 2.875 5.05977 3.18836 4.44478C3.46399 3.90381 3.90381 3.46399 4.44478 3.18836C5.05977 2.875 5.86485 2.875 7.475 2.875H15.525C17.1352 2.875 17.9402 2.875 18.5552 3.18836C19.0962 3.46399 19.536 3.90381 19.8116 4.44478C20.125 5.05977 20.125 5.86485 20.125 7.475V15.525M10.0625 8.14583C10.0625 9.20438 9.20438 10.0625 8.14583 10.0625C7.08729 10.0625 6.22917 9.20438 6.22917 8.14583C6.22917 7.08729 7.08729 6.22917 8.14583 6.22917C9.20438 6.22917 10.0625 7.08729 10.0625 8.14583Z" stroke="#3C3C43" stroke-opacity="0.6" stroke-width="1.2" stroke-linecap="round" stroke-linejoin="round"/>
</svg>
